<?xml version="1.0"?>
<svg version="1.1" xmlns="http://www.w3.org/2000/svg" xmlns:xlink="http://www.w3.org/1999/xlink" width="60" height="12">
    <desc iVinci="yes" version="4.4" gridStep="20" showGrid="no" snapToGrid="no" codePlatform="0"/>
    <g id="Layer1">
        <g id="Shape1">
            <desc type="0" basicInfo-basicType="0" basicInfo-roundedRectRadius="12" basicInfo-polygonSides="6" basicInfo-starPoints="5" bounding="rect(-29.519,-6.04449,59.038,12.089)" text="" font-familyName="" font-pixelSize="20" font-bold="0" font-underline="0" font-alignment="1" strokeStyle="0" markerStart="0" markerEnd="0" shadowEnabled="0" shadowOffsetX="0" shadowOffsetY="2" shadowBlur="4" shadowOpacity="160" blurEnabled="0" blurRadius="4" transform="matrix(1,0,0,1,271,-166)" pers-center="0,0" pers-size="0,0" pers-start="0,0" pers-end="0,0" locked="0" mesh="" flag=""/>
            <path id="shapePath1" d="M272.988,-166.169 C272.483,-166.169 272.12,-166.003 271.75,-165.835 L271.75,-162.021 C272.104,-161.987 272.307,-161.987 272.644,-161.987 C273.857,-161.987 274.023,-162.542 274.023,-163.317 L274.023,-165.138 C274.022,-165.709 273.832,-166.169 272.988,-166.169 M264.933,-166.377 C264.091,-166.377 263.899,-165.916 263.899,-165.345 L263.899,-165.024 L265.966,-165.024 L265.966,-165.345 C265.966,-165.915 265.774,-166.377 264.933,-166.377 M249.328,-162.406 C249.328,-161.956 249.542,-161.719 250.014,-161.719 C250.52,-161.719 250.82,-161.884 251.188,-162.053 L251.188,-162.957 L250.084,-162.957 C249.559,-162.958 249.328,-162.862 249.328,-162.406 M280.826,-166.169 C279.982,-166.169 279.689,-165.709 279.689,-165.138 L279.689,-163.051 C279.689,-162.477 279.982,-162.017 280.826,-162.017 C281.665,-162.017 281.96,-162.477 281.96,-163.051 L281.96,-165.138 C281.959,-165.709 281.666,-166.169 280.826,-166.169 M245.197,-160.067 L242.719,-160.067 L242.719,-166.055 L241.481,-166.055 L241.481,-168.119 L242.719,-168.119 L242.719,-169.358 C242.719,-171.043 243.419,-172.044 245.406,-172.044 L247.058,-172.044 L247.058,-169.98 L246.026,-169.98 C245.253,-169.98 245.2,-169.692 245.2,-169.153 L245.198,-168.119 L247.07,-168.119 L246.851,-166.055 L245.197,-166.055 L245.197,-160.067 M253.667,-160.051 L251.602,-160.051 L251.513,-160.572 C250.57,-160.051 249.728,-159.967 249.172,-159.967 C247.658,-159.967 246.852,-160.977 246.852,-162.375 C246.852,-164.023 247.792,-164.612 249.476,-164.612 L251.188,-164.612 L251.188,-164.968 C251.188,-165.809 251.092,-166.057 249.796,-166.057 L247.677,-166.057 L247.885,-168.12 L250.2,-168.12 C253.043,-168.12 253.667,-167.224 253.667,-164.951 L253.667,-160.051 M260.689,-165.904 C259.403,-166.125 259.035,-166.172 258.418,-166.172 C257.307,-166.172 256.972,-165.928 256.972,-164.986 L256.972,-163.204 C256.972,-162.262 257.308,-162.016 258.418,-162.016 C259.035,-162.016 259.403,-162.065 260.689,-162.286 L260.689,-160.274 C259.563,-160.021 258.831,-159.955 258.21,-159.955 C255.55,-159.955 254.492,-161.352 254.492,-163.371 L254.492,-164.817 C254.492,-166.837 255.55,-168.236 258.21,-168.236 C258.83,-168.236 259.563,-168.169 260.689,-167.917 L260.689,-165.904 M268.444,-163.37 L263.899,-163.37 L263.899,-163.204 C263.899,-162.262 264.236,-162.016 265.346,-162.016 C266.345,-162.016 266.954,-162.065 268.237,-162.286 L268.237,-160.274 C267,-160.021 266.355,-159.955 265.14,-159.955 C262.481,-159.955 261.422,-161.352 261.422,-163.371 L261.422,-165.024 C261.422,-166.79 262.207,-168.236 264.933,-168.236 C267.66,-168.236 268.444,-166.806 268.444,-165.024 L268.444,-163.37 M276.5,-163.332 C276.5,-161.381 275.941,-159.958 272.558,-159.958 C271.338,-159.958 270.621,-160.066 269.274,-160.273 L269.274,-171.424 L271.752,-171.837 L271.752,-167.937 C272.286,-168.136 272.981,-168.236 273.611,-168.236 C276.088,-168.236 276.501,-167.126 276.501,-165.344 L276.501,-163.332 L276.5,-163.332 M284.44,-163.289 C284.44,-161.606 283.744,-159.975 280.833,-159.975 C277.92,-159.975 277.212,-161.607 277.212,-163.289 L277.212,-164.914 C277.212,-166.598 277.92,-168.229 280.833,-168.229 C283.744,-168.229 284.44,-166.597 284.44,-164.914 L284.44,-163.289 M292.375,-163.289 C292.375,-161.606 291.679,-159.975 288.769,-159.975 C285.857,-159.975 285.147,-161.607 285.147,-163.289 L285.147,-164.914 C285.147,-166.598 285.857,-168.229 288.769,-168.229 C291.679,-168.229 292.375,-166.597 292.375,-164.914 L292.375,-163.289 M300.519,-160.067 L297.832,-160.067 L295.561,-163.852 L295.561,-160.067 L293.084,-160.067 L293.084,-171.425 L295.561,-171.837 L295.561,-164.525 L297.832,-168.12 L300.519,-168.12 L298.039,-164.197 L300.519,-160.067 M288.758,-166.169 C287.918,-166.169 287.625,-165.709 287.625,-165.138 L287.625,-163.051 C287.625,-162.477 287.918,-162.017 288.758,-162.017 C289.6,-162.017 289.897,-162.477 289.897,-163.051 L289.897,-165.138 C289.897,-165.709 289.6,-166.169 288.758,-166.169 " style="stroke:none;fill-rule:evenodd;fill:#ffffff;fill-opacity:1;"/>
        </g>
        <g id="Shape2">
            <desc type="0" basicInfo-basicType="0" basicInfo-roundedRectRadius="12" basicInfo-polygonSides="6" basicInfo-starPoints="5" bounding="rect(-29.519,-6.04448,59.038,12.089)" text="" font-familyName="" font-pixelSize="20" font-bold="0" font-underline="0" font-alignment="1" strokeStyle="0" markerStart="0" markerEnd="0" shadowEnabled="0" shadowOffsetX="0" shadowOffsetY="2" shadowBlur="4" shadowOpacity="160" blurEnabled="0" blurRadius="4" transform="matrix(1,0,0,1,29.519,6.0445)" pers-center="0,0" pers-size="0,0" pers-start="0,0" pers-end="0,0" locked="0" mesh="" flag=""/>
            <path id="shapePath2" d="M31.507,5.87502 C31.002,5.87502 30.639,6.04103 30.269,6.20903 L30.269,10.023 C30.623,10.057 30.826,10.057 31.163,10.057 C32.376,10.057 32.542,9.50203 32.542,8.72704 L32.542,6.90602 C32.541,6.33504 32.351,5.87502 31.507,5.87502 M23.452,5.66704 C22.61,5.66704 22.418,6.12804 22.418,6.69902 L22.418,7.02003 L24.485,7.02003 L24.485,6.69902 C24.485,6.12901 24.293,5.66704 23.452,5.66704 M7.847,9.63802 C7.847,10.088 8.061,10.325 8.533,10.325 C9.039,10.325 9.339,10.16 9.707,9.99101 L9.707,9.08702 L8.603,9.08702 C8.078,9.08601 7.847,9.18202 7.847,9.63802 M39.345,5.87502 C38.501,5.87502 38.208,6.33504 38.208,6.90602 L38.208,8.99303 C38.208,9.56703 38.501,10.027 39.345,10.027 C40.184,10.027 40.479,9.56703 40.479,8.99303 L40.479,6.90602 C40.478,6.33504 40.185,5.87502 39.345,5.87502 M3.716,11.977 L1.23801,11.977 L1.23801,5.98903 L0,5.98903 L0,3.92503 L1.23801,3.92503 L1.23801,2.68602 C1.23801,1.00102 1.938,1.52588e-05 3.925,1.52588e-05 L5.577,1.52588e-05 L5.577,2.06404 L4.545,2.06404 C3.772,2.06404 3.71899,2.35204 3.71899,2.89104 L3.717,3.92503 L5.589,3.92503 L5.37,5.98903 L3.716,5.98903 L3.716,11.977 M12.186,11.993 L10.121,11.993 L10.032,11.472 C9.089,11.993 8.24699,12.077 7.69099,12.077 C6.177,12.077 5.371,11.067 5.371,9.66902 C5.371,8.02104 6.311,7.43202 7.995,7.43202 L9.707,7.43202 L9.707,7.07603 C9.707,6.23503 9.61101,5.98701 8.315,5.98701 L6.196,5.98701 L6.40401,3.92403 L8.71899,3.92403 C11.562,3.92403 12.186,4.82002 12.186,7.09303 L12.186,11.993 M19.208,6.14003 C17.922,5.91902 17.554,5.87202 16.937,5.87202 C15.826,5.87202 15.491,6.11601 15.491,7.05803 L15.491,8.84004 C15.491,9.78203 15.827,10.028 16.937,10.028 C17.554,10.028 17.922,9.97902 19.208,9.75804 L19.208,11.77 C18.082,12.023 17.35,12.089 16.729,12.089 C14.069,12.089 13.011,10.692 13.011,8.67302 L13.011,7.22704 C13.011,5.20702 14.069,3.80803 16.729,3.80803 C17.349,3.80803 18.082,3.87502 19.208,4.12703 L19.208,6.14003 M26.963,8.67403 L22.418,8.67403 L22.418,8.84004 C22.418,9.78203 22.755,10.028 23.865,10.028 C24.864,10.028 25.473,9.97902 26.756,9.75804 L26.756,11.77 C25.519,12.023 24.874,12.089 23.659,12.089 C21,12.089 19.941,10.692 19.941,8.67302 L19.941,7.02003 C19.941,5.25401 20.726,3.80803 23.452,3.80803 C26.179,3.80803 26.963,5.23802 26.963,7.02003 L26.963,8.67403 M35.019,8.71202 C35.019,10.663 34.46,12.086 31.077,12.086 C29.857,12.086 29.14,11.978 27.793,11.771 L27.793,0.620041 L30.271,0.207016 L30.271,4.10704 C30.805,3.90804 31.5,3.80803 32.13,3.80803 C34.607,3.80803 35.02,4.91801 35.02,6.70003 L35.02,8.71202 L35.019,8.71202 M42.959,8.75502 C42.959,10.438 42.263,12.069 39.352,12.069 C36.439,12.069 35.731,10.437 35.731,8.75502 L35.731,7.13002 C35.731,5.44603 36.439,3.81502 39.352,3.81502 C42.263,3.81502 42.959,5.44704 42.959,7.13002 L42.959,8.75502 M50.894,8.75502 C50.894,10.438 50.198,12.069 47.288,12.069 C44.376,12.069 43.666,10.437 43.666,8.75502 L43.666,7.13002 C43.666,5.44603 44.376,3.81502 47.288,3.81502 C50.198,3.81502 50.894,5.44704 50.894,7.13002 L50.894,8.75502 M59.038,11.977 L56.351,11.977 L54.08,8.19203 L54.08,11.977 L51.603,11.977 L51.603,0.619034 L54.08,0.207016 L54.08,7.51903 L56.351,3.92403 L59.038,3.92403 L56.558,7.84703 L59.038,11.977 M47.277,5.87502 C46.437,5.87502 46.144,6.33504 46.144,6.90602 L46.144,8.99303 C46.144,9.56703 46.437,10.027 47.277,10.027 C48.119,10.027 48.416,9.56703 48.416,8.99303 L48.416,6.90602 C48.416,6.33504 48.119,5.87502 47.277,5.87502 " style="stroke:none;fill-rule:evenodd;fill:#000000;fill-opacity:0.705882;"/>
        </g>
    </g>
</svg>
