<?xml version="1.0" standalone="no"?>
<!DOCTYPE svg PUBLIC "-//W3C//DTD SVG 20010904//EN"
 "http://www.w3.org/TR/2001/REC-SVG-20010904/DTD/svg10.dtd">
<svg version="1.0" xmlns="http://www.w3.org/2000/svg"
 width="100.000000pt" height="100.000000pt" viewBox="0 0 100.000000 100.000000"
 preserveAspectRatio="xMidYMid meet">
<metadata>
Created by potrace 1.11, written by Peter Selinger 2001-2013
</metadata>
<g transform="translate(0.000000,100.000000) scale(0.100000,-0.100000)"
fill="#000000" stroke="none">
<path d="M462 830 c-93 -19 -144 -70 -144 -143 0 -47 15 -84 41 -104 9 -7 61
-29 116 -49 127 -46 163 -65 197 -101 46 -48 60 -117 38 -180 l-10 -28 25 30
c30 36 42 104 27 154 -22 71 -73 105 -264 175 -77 28 -113 57 -116 95 -6 60
56 101 150 101 88 -1 162 -46 186 -115 9 -25 11 -17 11 57 l1 87 -37 10 c-59
15 -174 20 -221 11z"/>
<path d="M265 703 c-29 -71 -21 -139 22 -185 26 -28 66 -46 196 -92 99 -36
137 -70 137 -124 0 -170 -289 -134 -327 41 -3 15 -10 27 -16 27 -10 0 -3 -187
7 -198 10 -9 153 -32 204 -32 68 0 111 19 150 65 37 46 48 97 30 150 -17 53
-79 94 -204 135 -141 47 -207 117 -190 201 6 32 2 38 -9 12z"/>
</g>
</svg>
